<?xml version="1.0" encoding="UTF-8"?>
<svg xmlns="http://www.w3.org/2000/svg" xmlns:xlink="http://www.w3.org/1999/xlink" width="40px" height="40px" viewBox="0 0 40 40" version="1.1">
<g id="surface1">
<path style=" stroke:none;fill-rule:nonzero;fill:rgb(0%,0%,0%);fill-opacity:1;" d="M 2.4375 0 C 1.128906 0 0.0625 1.0625 0.0625 2.375 L 0.0625 14.894531 L 0 25.984375 C 0 28 2.351562 29.101562 3.898438 27.8125 L 12.558594 20.597656 L 30.957031 20.597656 C 32.269531 20.597656 33.332031 19.53125 33.332031 18.21875 L 33.332031 2.375 C 33.332031 1.0625 32.269531 0 30.957031 0 Z M 4.816406 4.753906 L 28.582031 4.753906 L 28.582031 15.84375 L 4.816406 15.84375 Z M 9.964844 8.316406 C 8.878906 8.316406 7.984375 9.214844 7.984375 10.296875 C 7.984375 11.382812 8.878906 12.277344 9.964844 12.277344 C 11.050781 12.277344 11.945312 11.382812 11.945312 10.296875 C 11.945312 9.214844 11.050781 8.316406 9.964844 8.316406 Z M 16.699219 8.316406 C 15.613281 8.316406 14.71875 9.214844 14.71875 10.296875 C 14.71875 11.382812 15.613281 12.277344 16.699219 12.277344 C 17.78125 12.277344 18.679688 11.382812 18.679688 10.296875 C 18.679688 9.214844 17.78125 8.316406 16.699219 8.316406 Z M 23.429688 8.316406 C 22.347656 8.316406 21.449219 9.214844 21.449219 10.296875 C 21.449219 11.382812 22.347656 12.277344 23.429688 12.277344 C 24.515625 12.277344 25.410156 11.382812 25.410156 10.296875 C 25.410156 9.214844 24.515625 8.316406 23.429688 8.316406 Z M 9.964844 9.902344 C 10.191406 9.902344 10.359375 10.070312 10.359375 10.296875 C 10.359375 10.527344 10.191406 10.695312 9.964844 10.695312 C 9.738281 10.695312 9.570312 10.527344 9.570312 10.296875 C 9.570312 10.070312 9.738281 9.902344 9.964844 9.902344 Z M 16.699219 9.902344 C 16.925781 9.902344 17.09375 10.070312 17.09375 10.296875 C 17.09375 10.527344 16.925781 10.695312 16.699219 10.695312 C 16.46875 10.695312 16.300781 10.527344 16.300781 10.296875 C 16.300781 10.070312 16.46875 9.902344 16.699219 9.902344 Z M 23.429688 9.902344 C 23.660156 9.902344 23.828125 10.070312 23.828125 10.296875 C 23.828125 10.527344 23.660156 10.695312 23.429688 10.695312 C 23.203125 10.695312 23.035156 10.527344 23.035156 10.296875 C 23.035156 10.070312 23.203125 9.902344 23.429688 9.902344 Z M 23.429688 9.902344 "/>
<path style=" stroke:none;fill-rule:nonzero;fill:rgb(0%,0%,0%);fill-opacity:1;" d="M 34 11.632812 L 34 16.386719 L 35.183594 16.386719 L 35.183594 27.476562 L 11.417969 27.476562 L 11.417969 22.765625 L 6.667969 26.726562 L 6.667969 29.851562 C 6.667969 31.164062 7.730469 32.230469 9.042969 32.230469 L 27.441406 32.230469 L 36.101562 39.445312 C 37.648438 40.734375 40 39.632812 40 37.621094 L 39.9375 26.527344 L 39.9375 14.007812 C 39.9375 12.695312 38.871094 11.632812 37.558594 11.632812 Z M 31.882812 21.246094 C 31.800781 21.257812 31.710938 21.261719 31.625 21.261719 L 28.179688 21.261719 C 28.105469 21.472656 28.054688 21.695312 28.054688 21.929688 C 28.054688 23.015625 28.949219 23.910156 30.035156 23.910156 C 31.121094 23.910156 32.015625 23.015625 32.015625 21.929688 C 32.015625 21.691406 31.964844 21.460938 31.882812 21.246094 Z M 14.714844 21.261719 C 14.636719 21.472656 14.589844 21.695312 14.589844 21.929688 C 14.589844 23.015625 15.484375 23.910156 16.570312 23.910156 C 17.652344 23.910156 18.550781 23.015625 18.550781 21.929688 C 18.550781 21.695312 18.5 21.472656 18.421875 21.261719 Z M 21.449219 21.261719 C 21.371094 21.472656 21.320312 21.695312 21.320312 21.929688 C 21.320312 23.015625 22.21875 23.910156 23.300781 23.910156 C 24.386719 23.910156 25.28125 23.015625 25.28125 21.929688 C 25.28125 21.695312 25.234375 21.472656 25.15625 21.261719 Z M 16.570312 21.535156 C 16.796875 21.535156 16.964844 21.703125 16.964844 21.929688 C 16.964844 22.160156 16.796875 22.328125 16.570312 22.328125 C 16.339844 22.328125 16.171875 22.160156 16.171875 21.929688 C 16.171875 21.703125 16.339844 21.535156 16.570312 21.535156 Z M 23.300781 21.535156 C 23.53125 21.535156 23.699219 21.703125 23.699219 21.929688 C 23.699219 22.160156 23.53125 22.328125 23.300781 22.328125 C 23.074219 22.328125 22.90625 22.160156 22.90625 21.929688 C 22.90625 21.703125 23.074219 21.535156 23.300781 21.535156 Z M 30.035156 21.535156 C 30.261719 21.535156 30.429688 21.703125 30.429688 21.929688 C 30.429688 22.160156 30.261719 22.328125 30.035156 22.328125 C 29.808594 22.328125 29.640625 22.160156 29.640625 21.929688 C 29.640625 21.703125 29.808594 21.535156 30.035156 21.535156 Z M 30.035156 21.535156 "/>
</g>
</svg>
